<svg xmlns="http://www.w3.org/2000/svg" viewBox="0 0 256 256" xml:space="preserve">
    <path fill="hsl(var(--primary))"
        d="m128 6.112 29.366 38.003a10 10 0 0 0 9.184 3.804l47.637-6.107-6.107 47.637a10 10 0 0 0 3.804 9.184L249.888 128l-38.003 29.366a10 10 0 0 0-3.804 9.184l6.107 47.637-47.637-6.107a10 10 0 0 0-9.184 3.804L128 249.888l-29.366-38.003a10 10 0 0 0-9.184-3.804l-47.637 6.107 6.107-47.637a10 10 0 0 0-3.804-9.184L6.112 128l38.003-29.366a10 10 0 0 0 3.804-9.184l-6.107-47.637 47.637 6.107a10 10 0 0 0 9.184-3.804L128 6.112z" />
    <path fill="hsl(var(--primary))"
        d="m102.921 179.716 10.976-37.95H98.312c-7.29 0-12.536-6.991-10.493-13.993l16.838-57.607c1.327-4.614 5.642-7.857 10.485-7.857h25.167c7.317 0 12.519 7 10.496 13.964l-8.717 30.327h15.601c8.749 0 13.952 9.803 9.053 17.052l-44.284 65.235c-6.997 10.3-22.947 2.645-19.537-9.171z" />
    <path fill="#EFEFEF"
        d="m160.941 119.731-44.276 65.223c-2.513 3.7-8.25.967-7.019-3.297l13.562-46.892H98.312c-2.623 0-4.506-2.52-3.773-5.033l16.837-57.603c.476-1.656 2.03-2.821 3.766-2.821h25.168c2.63 0 4.499 2.513 3.773 5.011l-11.291 39.279h24.896c3.158.001 5.012 3.532 3.253 6.133z" />
    <path fill="hsl(var(--primary))"
        d="M126.022 235.063 104.569 207.3c-3.644-4.714-9.748-7.467-16.073-6.658l-21.907 2.809a2.49 2.49 0 0 1-2.797-2.162 2.498 2.498 0 0 1 2.162-2.797l21.907-2.809c8.112-1.043 15.968 2.483 20.665 8.559L128 229.445l19.476-25.204c4.696-6.077 12.554-9.602 20.666-8.559l31.591 4.05-4.05-31.592c-1.041-8.095 2.472-15.962 8.561-20.665L229.445 128l-25.201-19.475c-6.103-4.716-9.597-12.59-8.561-20.665l4.461-34.802a2.496 2.496 0 0 1 2.797-2.162 2.499 2.499 0 0 1 2.162 2.797l-4.461 34.801c-.802 6.271 1.903 12.399 6.658 16.074l27.762 21.453a2.5 2.5 0 0 1 0 3.956L207.3 151.432c-4.755 3.673-7.455 9.786-6.658 16.074l4.461 34.8a2.5 2.5 0 0 1-2.798 2.797l-34.801-4.461c-6.228-.803-12.374 1.872-16.071 6.657l-21.454 27.764a2.503 2.503 0 0 1-3.957 0zm-75.125-32.121a2.498 2.498 0 0 1 2.162-2.797l2.976-.381a2.493 2.493 0 0 1 2.797 2.162 2.498 2.498 0 0 1-2.162 2.797l-2.976.381a2.5 2.5 0 0 1-2.797-2.162z" />
</svg>